<svg xmlns="http://www.w3.org/2000/svg" width="24" height="24" viewBox="0 0 24 24" fill="none">
  <mask id="mask0_1230_46956" style="mask-type:alpha" maskUnits="userSpaceOnUse" x="0" y="0" width="24" height="24">
    <rect width="24" height="24" fill="#012B53"/>
  </mask>
  <g mask="url(#mask0_1230_46956)">
    <path d="M8 13.7511L9.975 11.0011H14.225L8 6.1011V13.7511ZM15.15 21.3761C14.7667 21.5594 14.3833 21.5803 14 21.4386C13.6167 21.2969 13.3333 21.0344 13.15 20.6511L10.15 14.2011L7.825 17.4511C7.54167 17.8511 7.16667 17.9761 6.7 17.8261C6.23333 17.6761 6 17.3594 6 16.8761V4.0511C6 3.63443 6.1875 3.33443 6.5625 3.1511C6.9375 2.96777 7.29167 3.00943 7.625 3.2761L17.725 11.2261C18.1083 11.5094 18.2208 11.8761 18.0625 12.3261C17.9042 12.7761 17.5833 13.0011 17.1 13.0011H12.9L15.875 19.3761C16.0583 19.7594 16.0792 20.1428 15.9375 20.5261C15.7958 20.9094 15.5333 21.1928 15.15 21.3761Z" fill="#096AB3"/>
  </g>
</svg>