<svg width="40" height="40" viewBox="0 0 40 40" fill="none" xmlns="http://www.w3.org/2000/svg">
<g clip-path="url(#clip0_3743_16747)">
<path d="M20.2886 31H15.7114H20.2886ZM24.8657 15.9474C24.8657 14.1048 24.1424 12.3377 22.8548 11.0348C21.5672 9.73195 19.8209 9 18 9C16.1791 9 14.4328 9.73195 13.1452 11.0348C11.8576 12.3377 11.1342 14.1048 11.1342 15.9474C11.1342 19.5255 10.2422 21.9753 9.24579 23.5957C8.40526 24.9626 7.985 25.646 8.00041 25.8367C8.01747 26.0478 8.06167 26.1283 8.22978 26.2545C8.38161 26.3684 9.06605 26.3684 10.4349 26.3684H25.5651C26.934 26.3684 27.6184 26.3684 27.7702 26.2545C27.9383 26.1283 27.9825 26.0478 27.9996 25.8367C28.015 25.646 27.5947 24.9626 26.7542 23.5957C25.7578 21.9753 24.8657 19.5255 24.8657 15.9474Z" fill="currentColor"/>
<path d="M20.2886 31H15.7114M24.8657 15.9474C24.8657 14.1048 24.1424 12.3377 22.8548 11.0348C21.5672 9.73195 19.8209 9 18 9C16.1791 9 14.4328 9.73195 13.1452 11.0348C11.8576 12.3377 11.1342 14.1048 11.1342 15.9474C11.1342 19.5255 10.2422 21.9753 9.24579 23.5957C8.40526 24.9626 7.985 25.646 8.00041 25.8367C8.01747 26.0478 8.06167 26.1283 8.22978 26.2545C8.38161 26.3684 9.06605 26.3684 10.4349 26.3684H25.5651C26.934 26.3684 27.6184 26.3684 27.7702 26.2545C27.9383 26.1283 27.9825 26.0478 27.9996 25.8367C28.015 25.646 27.5947 24.9626 26.7542 23.5957C25.7578 21.9753 24.8657 19.5255 24.8657 15.9474Z" stroke="currentColor" stroke-width="2" stroke-linecap="round" stroke-linejoin="round"/>
</g>
<circle cx="31" cy="10" r="2" fill="#2098F3"/>
<defs>
<clipPath id="clip0_3743_16747">
<rect width="22" height="24" fill="white" transform="translate(7 8)"/>
</clipPath>
</defs>
</svg>
