<svg width="20" height="20" viewBox="0 0 20 20" fill="none" xmlns="http://www.w3.org/2000/svg">
<g clip-path="url(#clip0_1230_17366)">
<path d="M17.1556 6.47177L12.1637 2.42288C11.5588 1.93456 10.7872 1.66602 9.98922 1.66602C9.19122 1.66602 8.41964 1.93456 7.81468 2.42288L2.8229 6.47177C2.46047 6.76623 2.16977 7.13037 1.9705 7.53951C1.77124 7.94864 1.66805 8.39318 1.66797 8.84302V15.9796C1.66797 16.2889 1.733 16.5954 1.85934 16.8811C1.98568 17.1669 2.17084 17.4265 2.40424 17.645C2.63764 17.8636 2.91469 18.0368 3.21954 18.1548C3.52438 18.2728 3.85102 18.3333 4.18078 18.3327H7.52957V13.173C7.52957 12.5573 7.79025 11.9668 8.25424 11.5315C8.71822 11.0962 9.34755 10.8516 10.0037 10.8516C10.6599 10.8516 11.2892 11.0962 11.7532 11.5315C12.2172 11.9668 12.4779 12.5573 12.4779 13.173V18.3327H16.1214C16.7084 18.3327 17.2713 18.1139 17.6864 17.7244C18.1015 17.335 18.3346 16.8069 18.3346 16.2561V8.84302C18.3316 8.39143 18.2246 7.94579 18.0211 7.53655C17.8176 7.1273 17.5224 6.76412 17.1556 6.47177Z" fill="#2098F3" stroke="#2098F3" stroke-width="2" stroke-linecap="round" stroke-linejoin="round"/>
</g>
<defs>
<clipPath id="clip0_1230_17366">
<rect width="20" height="20" fill="white"/>
</clipPath>
</defs>
</svg>
