<svg width="14" height="14" viewBox="0 0 14 14" fill="none" xmlns="http://www.w3.org/2000/svg">
<rect width="14" height="14" fill="#F5F5F5"/>
<g id="5. &#235;&#130;&#152;&#236;&#157;&#152; &#237;&#140;&#159;">
<rect width="26483" height="29832" transform="translate(-12569 -21058)" fill="#EAF6EC"/>
<g id="&#235;&#130;&#152;&#236;&#157;&#152; &#237;&#140;&#159; &#237;&#142;&#152;&#236;&#157;&#180;&#236;&#167;&#128;" clip-path="url(#clip0_1_38290)">
<rect width="1920" height="1410" transform="translate(-1417 -174)" fill="white"/>
<g id="Frame 427321284">
<g id="Frame 427321391">
<g id="chatgroup">
<g id="potgroup">
<path d="M-621 -30H85C89.4183 -30 93 -26.4183 93 -22V36C93 40.4183 89.4183 44 85 44H-621V-30Z" fill="#F1F9FF"/>
<g id="title">
<g id="cover">
<g id="image">
<mask id="mask0_1_38290" style="mask-type:alpha" maskUnits="userSpaceOnUse" x="0" y="0" width="14" height="14">
<rect id="Bounding box" width="14" height="14" fill="#D9D9D9"/>
</mask>
<g mask="url(#mask0_1_38290)">
<path id="image_2" d="M2.91667 12.25C2.59583 12.25 2.32118 12.1358 2.09271 11.9073C1.86424 11.6788 1.75 11.4042 1.75 11.0833V2.91667C1.75 2.59583 1.86424 2.32118 2.09271 2.09271C2.32118 1.86424 2.59583 1.75 2.91667 1.75H11.0833C11.4042 1.75 11.6788 1.86424 11.9073 2.09271C12.1358 2.32118 12.25 2.59583 12.25 2.91667V11.0833C12.25 11.4042 12.1358 11.6788 11.9073 11.9073C11.6788 12.1358 11.4042 12.25 11.0833 12.25H2.91667ZM4.08333 9.91667H9.91667C10.0333 9.91667 10.1208 9.86319 10.1792 9.75625C10.2375 9.64931 10.2278 9.54722 10.15 9.45L8.54583 7.30625C8.4875 7.22847 8.40972 7.18958 8.3125 7.18958C8.21528 7.18958 8.1375 7.22847 8.07917 7.30625L6.5625 9.33333L5.48333 7.88958C5.425 7.81181 5.34722 7.77292 5.25 7.77292C5.15278 7.77292 5.075 7.81181 5.01667 7.88958L3.85 9.45C3.77222 9.54722 3.7625 9.64931 3.82083 9.75625C3.87917 9.86319 3.96667 9.91667 4.08333 9.91667Z" fill="#6D7882"/>
</g>
</g>
</g>
</g>
</g>
</g>
</g>
</g>
</g>
</g>
<defs>
<clipPath id="clip0_1_38290">
<rect width="1920" height="1410" fill="white" transform="translate(-1417 -174)"/>
</clipPath>
</defs>
</svg>
