<svg width="22" height="20" viewBox="0 0 22 20" fill="none" xmlns="http://www.w3.org/2000/svg">
<path d="M11.1153 18.0693C11.2037 17.7652 11.251 17.4452 11.251 17.1152V13.5391C11.251 12.9338 11.4373 12.3689 11.7588 11.8906C12.2886 12.0307 12.7876 12.2943 13.2022 12.6846L16.1758 15.4824L16.3223 15.6133C16.4713 15.7397 16.6284 15.8529 16.792 15.9531L17.6709 16.4922L17.1367 15.6104C17.0125 15.4055 16.8651 15.2102 16.6953 15.0273L16.5186 14.8496L13.8311 12.3203C13.3774 11.8934 13.0863 11.3748 12.9531 10.8311C13.428 10.5833 13.9748 10.4405 14.5586 10.4404H18.7627C19.0324 10.4404 19.2958 10.4137 19.5498 10.3633L20.627 10.1494L19.5635 9.87598C19.2438 9.79377 18.9073 9.75 18.5606 9.75H14.7608C14.1114 9.75 13.5077 9.57398 12.9981 9.27246C13.1468 8.78959 13.4235 8.33268 13.8311 7.94922L16.8037 5.15039L16.9434 5.0127C17.0777 4.87215 17.1986 4.72392 17.3057 4.56934L17.8985 3.71387L16.9815 4.20605C16.7654 4.32226 16.5591 4.46068 16.3653 4.62012L16.1758 4.78711L13.4883 7.31543C13.0273 7.74929 12.4626 8.02791 11.8672 8.15234C11.6033 7.70726 11.4531 7.19565 11.4531 6.65137V2.69434C11.4531 2.43763 11.4242 2.18694 11.3701 1.94531L11.1582 0.996094L10.8867 1.93066C10.7983 2.23485 10.751 2.55478 10.751 2.88477V6.46094C10.751 7.06717 10.5637 7.63252 10.2412 8.11133C9.78477 7.99046 9.35176 7.77644 8.97559 7.46973L8.79981 7.31543L5.82618 4.51758C5.6349 4.33745 5.42818 4.18065 5.20996 4.04688L4.33106 3.50781L4.86524 4.38965C5.03075 4.66256 5.23709 4.91854 5.4834 5.15039L8.1709 7.67969L8.34961 7.8623C8.70232 8.2511 8.93316 8.70117 9.04786 9.16992C8.57334 9.41728 8.02708 9.55954 7.44336 9.55957H3.23926C2.9696 9.55957 2.70611 9.58633 2.45215 9.63672L1.375 9.85059L2.43848 10.124L2.68164 10.1787C2.92722 10.2257 3.18146 10.25 3.44141 10.25H7.24121C7.89045 10.25 8.49335 10.4271 9.00293 10.7285C8.87489 11.1434 8.6528 11.5393 8.33399 11.8857L8.1709 12.0508L5.19825 14.8496C5.00626 15.0301 4.83915 15.2245 4.69629 15.4307L4.10352 16.2861L5.02051 15.7939C5.30867 15.639 5.57974 15.4448 5.82618 15.2129L8.51368 12.6846L8.70801 12.5156C9.12893 12.1775 9.61979 11.9562 10.1338 11.8486C10.3974 12.2937 10.5489 12.8044 10.5489 13.3486V17.3057C10.5489 17.5624 10.5778 17.8131 10.6319 18.0547L10.8438 19.0039L11.1153 18.0693Z" fill="#2098F3" stroke="#2098F3" stroke-width="0.5" stroke-miterlimit="5.75877" stroke-linecap="round"/>
</svg>
