<svg width="18" height="17" viewBox="0 0 18 17" fill="none" xmlns="http://www.w3.org/2000/svg">
<g clip-path="url(#clip0_1230_17397)">
<path d="M3 17C2.16667 17 1.45833 16.7083 0.875 16.125C0.291667 15.5417 0 14.8333 0 14V6C0 5.71667 0.0958333 5.47917 0.2875 5.2875C0.479167 5.09583 0.716667 5 1 5H17C17.2833 5 17.5208 5.09583 17.7125 5.2875C17.9042 5.47917 18 5.71667 18 6V14C18 14.8333 17.7083 15.5417 17.125 16.125C16.5417 16.7083 15.8333 17 15 17H3ZM2 7V14C2 14.2833 2.09583 14.5208 2.2875 14.7125C2.47917 14.9042 2.71667 15 3 15H15C15.2833 15 15.5208 14.9042 15.7125 14.7125C15.9042 14.5208 16 14.2833 16 14V7H2ZM6 2V1C6 0.716667 6.09583 0.479167 6.2875 0.2875C6.47917 0.0958333 6.71667 0 7 0H11C11.2833 0 11.5208 0.0958333 11.7125 0.2875C11.9042 0.479167 12 0.716667 12 1V2H17C17.2833 2 17.5208 2.09583 17.7125 2.2875C17.9042 2.47917 18 2.71667 18 3C18 3.28333 17.9042 3.52083 17.7125 3.7125C17.5208 3.90417 17.2833 4 17 4H1C0.716667 4 0.479167 3.90417 0.2875 3.7125C0.0958333 3.52083 0 3.28333 0 3C0 2.71667 0.0958333 2.47917 0.2875 2.2875C0.479167 2.09583 0.716667 2 1 2H6Z" fill="#6D7882"/>
</g>
<defs>
<clipPath id="clip0_1230_17397">
<rect width="18" height="17" fill="white"/>
</clipPath>
</defs>
</svg>
