<svg width="23" height="20" viewBox="0 0 23 20" fill="none" xmlns="http://www.w3.org/2000/svg">
<g clip-path="url(#clip0_6243_15328)">
<path d="M19.8766 9.87611L20.9401 10.1496L19.8631 10.3634C19.6091 10.4139 19.3461 10.4403 19.0764 10.4403H14.8722C14.2879 10.4403 13.74 10.5821 13.2649 10.8301C13.3979 11.3743 13.6902 11.8929 14.1442 12.3202L16.8315 14.8493C17.0781 15.0813 17.2842 15.3377 17.4498 15.6109L17.9843 16.4923L17.1054 15.9536C16.8871 15.8198 16.6803 15.6628 16.4889 15.4825L13.5156 12.6843C13.1009 12.2938 12.6023 12.0281 12.0723 11.8881C11.75 12.3668 11.5644 12.9327 11.5644 13.5387V17.1154C11.5644 17.4455 11.5174 17.7656 11.4289 18.0699L11.1573 19.0041L10.9449 18.0547C10.8908 17.813 10.8621 17.5624 10.8621 17.3056V13.3484C10.8621 12.8037 10.7123 12.2916 10.4482 11.8462C9.85247 11.9706 9.28816 12.2505 8.82717 12.6843L6.13986 15.2134C5.89342 15.4453 5.62183 15.6387 5.33367 15.7936L4.41703 16.2864L5.00981 15.431C5.15268 15.2249 5.31975 15.0297 5.51175 14.8492C5.51173 14.8492 5.51177 14.8492 5.51175 14.8492L8.48445 12.0512C8.89207 11.6674 9.16939 11.21 9.31811 10.7268C8.80841 10.4252 8.20422 10.2501 7.55476 10.2501H3.7546C3.40788 10.2501 3.0718 10.2063 2.75208 10.1241L1.68857 9.85046L2.76572 9.63675C3.01967 9.58636 3.28268 9.55988 3.55234 9.55988H7.75658C8.34118 9.55988 8.88878 9.41813 9.3638 9.1701C9.23079 8.62597 8.93853 8.10735 8.48449 7.68002L5.7972 5.15093C5.7972 5.15094 5.79719 5.15092 5.7972 5.15093C5.55065 4.91893 5.34456 4.66248 5.17894 4.38936L4.64434 3.50778L5.52335 4.04659C5.74173 4.18045 5.94853 4.33755 6.13993 4.51783L9.11312 7.31591C9.52779 7.70637 10.0264 7.97211 10.5565 8.11214C10.8787 7.63341 11.0644 7.06756 11.0644 6.4615V2.88484C11.0644 2.55472 11.1114 2.23461 11.1998 1.93032L11.4715 0.996094L11.6839 1.94554C11.7379 2.18722 11.7666 2.43785 11.7666 2.6946V6.65181C11.7666 7.19663 11.9164 7.70867 12.1808 8.15406C12.7763 8.02963 13.3406 7.74979 13.8016 7.31592L16.4889 4.7868C16.7353 4.55489 17.0069 4.36155 17.295 4.20658L18.2116 3.71352L17.6189 4.56911C17.4761 4.77537 17.309 4.97052 17.1176 5.15085L14.1442 7.94907C13.7363 8.33279 13.4593 8.79016 13.3106 9.27339C13.8203 9.575 14.4245 9.75012 15.074 9.75012H18.8741C19.2209 9.75012 19.5569 9.7939 19.8766 9.87611Z" fill="currentColor"/>
<path d="M14.1442 12.3202C13.6902 11.8929 13.3979 11.3743 13.2649 10.8301C13.74 10.5821 14.2879 10.4403 14.8722 10.4403H19.0764C19.3461 10.4403 19.6091 10.4139 19.8631 10.3634L20.9401 10.1496L19.8766 9.87611C19.5569 9.7939 19.2209 9.75012 18.8741 9.75012H15.074C14.4245 9.75012 13.8203 9.575 13.3106 9.27339C13.4593 8.79016 13.7363 8.33279 14.1442 7.94907L17.1176 5.15085C17.309 4.97052 17.4761 4.77537 17.6189 4.56911L18.2116 3.71352L17.295 4.20658C17.0069 4.36155 16.7353 4.55489 16.4889 4.7868L13.8016 7.31592M14.1442 12.3202L14.0099 12.4629M14.1442 12.3202L16.8315 14.8493C17.0781 15.0813 17.2842 15.3377 17.4498 15.6109L17.9843 16.4923L17.1054 15.9536C16.8871 15.8198 16.6803 15.6628 16.4889 15.4825L13.5156 12.6843C13.1009 12.2938 12.6023 12.0281 12.0723 11.8881C11.75 12.3668 11.5644 12.9327 11.5644 13.5387V17.1154C11.5644 17.4455 11.5174 17.7656 11.4289 18.0699L11.1573 19.0041L10.9449 18.0547C10.8908 17.813 10.8621 17.5624 10.8621 17.3056V13.3484C10.8621 12.8037 10.7123 12.2916 10.4482 11.8462C9.85247 11.9706 9.28816 12.2505 8.82717 12.6843L6.13986 15.2134C5.89342 15.4453 5.62183 15.6387 5.33367 15.7936L4.41703 16.2864L5.00981 15.431C5.15268 15.2249 5.31975 15.0297 5.51175 14.8492M5.51175 14.8492C5.51177 14.8492 5.51173 14.8492 5.51175 14.8492ZM5.51175 14.8492L8.48445 12.0512C8.89207 11.6674 9.16939 11.21 9.31811 10.7268C8.80841 10.4252 8.20422 10.2501 7.55476 10.2501H3.7546C3.40788 10.2501 3.0718 10.2063 2.75208 10.1241L1.68857 9.85046L2.76572 9.63675C3.01967 9.58636 3.28268 9.55988 3.55234 9.55988H7.75658C8.34118 9.55988 8.88878 9.41813 9.3638 9.1701C9.23079 8.62597 8.93853 8.10735 8.48449 7.68002L5.7972 5.15093M5.7972 5.15093C5.79719 5.15092 5.7972 5.15094 5.7972 5.15093ZM5.7972 5.15093C5.55065 4.91893 5.34456 4.66248 5.17894 4.38936L4.64434 3.50778L5.52335 4.04659C5.74173 4.18045 5.94853 4.33755 6.13993 4.51783L9.11312 7.31591C9.52779 7.70637 10.0264 7.97211 10.5565 8.11214C10.8787 7.63341 11.0644 7.06756 11.0644 6.4615V2.88484C11.0644 2.55472 11.1114 2.23461 11.1998 1.93032L11.4715 0.996094L11.6839 1.94554C11.7379 2.18722 11.7666 2.43785 11.7666 2.6946V6.65181C11.7666 7.19663 11.9164 7.70867 12.1808 8.15406C12.7763 8.02963 13.3406 7.74979 13.8016 7.31592M13.8016 7.31592L13.9358 7.45859" stroke="currentColor" stroke-width="0.5" stroke-miterlimit="5.75877" stroke-linecap="round"/>
</g>
<defs>
<clipPath id="clip0_6243_15328">
<rect width="23" height="20" fill="white"/>
</clipPath>
</defs>
</svg>