<svg width="14" height="17" viewBox="0 0 14 17" fill="none" xmlns="http://www.w3.org/2000/svg">
<path d="M7 15.0107L2.8 16.8107C2.13333 17.0941 1.5 17.0399 0.9 16.6482C0.3 16.2566 0 15.7024 0 14.9857V2.01074C0 1.46074 0.195833 0.989909 0.5875 0.598242C0.979167 0.206576 1.45 0.0107422 2 0.0107422H12C12.55 0.0107422 13.0208 0.206576 13.4125 0.598242C13.8042 0.989909 14 1.46074 14 2.01074V14.9857C14 15.7024 13.7 16.2566 13.1 16.6482C12.5 17.0399 11.8667 17.0941 11.2 16.8107L7 15.0107ZM7 12.8107L12 14.9607V2.01074H2V14.9607L7 12.8107Z" fill="#6D7882"/>
</svg>
