<svg width="24" height="24" viewBox="0 0 24 24" fill="none" xmlns="http://www.w3.org/2000/svg">
<path d="M10.8984 2.39844C15.5929 2.39844 19.3984 6.20402 19.3984 10.8984C19.3984 12.9569 18.6658 14.8437 17.4482 16.3145L20.7666 19.6328C21.0785 19.9452 21.0786 20.4514 20.7666 20.7637C20.4542 21.0761 19.9472 21.0761 19.6348 20.7637L16.3174 17.4463C14.8462 18.6652 12.9582 19.3984 10.8984 19.3984C6.20402 19.3984 2.39844 15.5929 2.39844 10.8984C2.39844 6.20402 6.20402 2.39844 10.8984 2.39844ZM10.8984 3.99805C7.08767 3.99805 3.99805 7.08767 3.99805 10.8984C3.99805 14.7092 7.08767 17.7988 10.8984 17.7988C12.7149 17.7988 14.3655 17.0946 15.5977 15.9473C15.6349 15.8738 15.6847 15.8046 15.7461 15.7432C15.8078 15.6815 15.8773 15.632 15.9512 15.5947C17.0966 14.363 17.7988 12.7131 17.7988 10.8984C17.7988 7.08767 14.7092 3.99805 10.8984 3.99805Z" fill="#2098F3"/>
</svg>
