<svg width="32" height="32" viewBox="0 0 32 32" fill="none" xmlns="http://www.w3.org/2000/svg">
<g clip-path="url(#clip0_766_40482)">
<path d="M27.1487 17.0396C27.6948 15.8042 27.9981 14.4376 27.9981 13C27.9981 7.47716 23.5213 3 17.9991 3C12.4767 3 8 7.47716 8 13C8 18.5229 12.4767 23 17.9991 23C19.777 23 21.4466 22.5359 22.8932 21.7222L28 22.999L27.1487 17.0396Z" fill="#5FB5F7" stroke="#5FB5F7" stroke-width="2" stroke-linecap="round" stroke-linejoin="round"/>
<path d="M7 28.5L18 18M18 18H8M18 18V28" stroke="white" stroke-width="5" stroke-linecap="round" stroke-linejoin="round"/>
<path d="M7.5752 17.5H17.5752C17.7323 17.5 17.8405 17.5477 17.9336 17.6406C18.0269 17.7339 18.0752 17.8426 18.0752 18V28C18.0752 28.1574 18.0269 28.2661 17.9336 28.3594C17.8405 28.4523 17.7323 28.5 17.5752 28.5C17.4178 28.5 17.3091 28.4526 17.2158 28.3594C17.1225 28.2661 17.0752 28.1574 17.0752 28V19.1934L16.2217 20.0469L7.32129 28.9463C7.24089 29.0267 7.13888 29.0752 6.97461 29.0752C6.81063 29.0751 6.70923 29.0266 6.62891 28.9463C6.5485 28.8659 6.5 28.7639 6.5 28.5996C6.50006 28.4766 6.52683 28.3885 6.57422 28.3184L6.62891 28.2539L15.5283 19.3535L16.3818 18.5H7.5752C7.41783 18.5 7.30907 18.4526 7.21582 18.3594C7.12255 18.2661 7.0752 18.1574 7.0752 18C7.0752 17.8426 7.12255 17.7339 7.21582 17.6406C7.30907 17.5474 7.41783 17.5 7.5752 17.5Z" fill="#5FB5F7" stroke="#5FB5F7"/>
</g>
<defs>
<clipPath id="clip0_766_40482">
<rect width="25" height="29" fill="white" transform="translate(4 2)"/>
</clipPath>
</defs>
</svg>
