<svg xmlns="http://www.w3.org/2000/svg" width="24" height="24" viewBox="0 0 24 24" fill="currentColor">
  <mask id="mask0_266_12360" style="mask-type:alpha" maskUnits="userSpaceOnUse" x="0" y="0" width="24" height="24">
    <rect width="24" height="24" fill="white"/>
  </mask>
  <g mask="url(#mask0_266_12360)">
    <path d="M16.1492 13.0501L13.9992 16.5001C13.8159 16.7834 13.5617 16.9001 13.2367 16.8501C12.9117 16.8001 12.7076 16.6084 12.6242 16.2751L11.9242 13.4751L5.09922 20.3001C4.91589 20.4834 4.68672 20.5792 4.41172 20.5876C4.13672 20.5959 3.89922 20.5001 3.69922 20.3001C3.51589 20.1167 3.42422 19.8834 3.42422 19.6001C3.42422 19.3167 3.51589 19.0834 3.69922 18.9001L10.5242 12.0501L7.72422 11.3501C7.39089 11.2667 7.19922 11.0626 7.14922 10.7376C7.09922 10.4126 7.21589 10.1584 7.49922 9.97505L10.9492 7.85005L10.6492 3.77505C10.6159 3.44172 10.7492 3.20005 11.0492 3.05005C11.3492 2.90005 11.6242 2.93339 11.8742 3.15005L14.9992 5.77505L18.7742 4.25005C19.0909 4.11672 19.3659 4.16672 19.5992 4.40005C19.8326 4.63339 19.8826 4.90839 19.7492 5.22505L18.2242 9.00005L20.8492 12.1001C21.0659 12.3501 21.0992 12.6251 20.9492 12.9251C20.7992 13.2251 20.5576 13.3584 20.2242 13.3251L16.1492 13.0501ZM3.34922 6.35005C3.24922 6.25005 3.19922 6.13339 3.19922 6.00005C3.19922 5.86672 3.24922 5.75005 3.34922 5.65005L4.64922 4.35005C4.74922 4.25005 4.86589 4.20005 4.99922 4.20005C5.13255 4.20005 5.24922 4.25005 5.34922 4.35005L6.64922 5.65005C6.74922 5.75005 6.79922 5.86672 6.79922 6.00005C6.79922 6.13339 6.74922 6.25005 6.64922 6.35005L5.34922 7.65005C5.24922 7.75005 5.13255 7.80005 4.99922 7.80005C4.86589 7.80005 4.74922 7.75005 4.64922 7.65005L3.34922 6.35005ZM13.8742 12.9251L15.0742 10.9501L17.3992 11.1251L15.8992 9.35005L16.7742 7.20005L14.6242 8.07505L12.8492 6.60005L13.0242 8.90005L11.0492 10.1251L13.2992 10.6751L13.8742 12.9251ZM17.6492 20.6501L16.3492 19.3501C16.2492 19.2501 16.1992 19.1334 16.1992 19.0001C16.1992 18.8667 16.2492 18.7501 16.3492 18.6501L17.6492 17.3501C17.7492 17.2501 17.8659 17.2001 17.9992 17.2001C18.1326 17.2001 18.2492 17.2501 18.3492 17.3501L19.6492 18.6501C19.7492 18.7501 19.7992 18.8667 19.7992 19.0001C19.7992 19.1334 19.7492 19.2501 19.6492 19.3501L18.3492 20.6501C18.2492 20.7501 18.1326 20.8001 17.9992 20.8001C17.8659 20.8001 17.7492 20.7501 17.6492 20.6501Z" fill="currentColor"/>
  </g>
</svg>