<svg width="21" height="22" viewBox="0 0 21 22" fill="none" xmlns="http://www.w3.org/2000/svg">
<path fill-rule="evenodd" clip-rule="evenodd" d="M8.05987 5.54679C8.42222 5.54679 8.74392 5.80276 8.85851 6.18225L10.0934 10.272L13.798 11.6352C14.1418 11.7617 14.3736 12.1168 14.3736 12.5168C14.3736 12.9169 14.1418 13.272 13.798 13.3985L10.0934 14.7617L8.85851 18.8514C8.74392 19.2309 8.42222 19.4869 8.05987 19.4869C7.69752 19.4869 7.37582 19.2309 7.26123 18.8514L6.02636 14.7617L2.32172 13.3985C1.97796 13.272 1.74609 12.9169 1.74609 12.5168C1.74609 12.1168 1.97796 11.7617 2.32172 11.6352L6.02635 10.272L7.26123 6.18225C7.37582 5.80276 7.69752 5.54679 8.05987 5.54679ZM8.05987 9.41496L7.49052 11.3005C7.40673 11.5781 7.20947 11.7958 6.9581 11.8883L5.25005 12.5168L6.9581 13.1454C7.20947 13.2379 7.40673 13.4556 7.49052 13.7331L8.05987 15.6187L8.62922 13.7331C8.71301 13.4556 8.91027 13.2379 9.16164 13.1454L10.8697 12.5168L9.16164 11.8883C8.91027 11.7958 8.71301 11.5781 8.62922 11.3005L8.05987 9.41496Z" fill="#0283F5"/>
<path fill-rule="evenodd" clip-rule="evenodd" d="M14.7946 2.20117C15.012 2.20117 15.205 2.35475 15.2737 2.58245L15.9305 4.75747L17.9007 5.48247C18.107 5.55837 18.2461 5.77145 18.2461 6.01146C18.2461 6.25147 18.107 6.46456 17.9007 6.54045L15.9305 7.26546L15.2737 9.44048C15.205 9.66817 15.012 9.82175 14.7946 9.82175C14.5772 9.82175 14.3841 9.66817 14.3154 9.44048L13.6586 7.26546L11.6884 6.54045C11.4822 6.46456 11.343 6.25147 11.343 6.01146C11.343 5.77145 11.4822 5.55837 11.6884 5.48247L13.6586 4.75747L14.3154 2.58245C14.3841 2.35475 14.5772 2.20117 14.7946 2.20117Z" fill="#0283F5"/>
</svg>