<svg width="26" height="26" viewBox="0 0 26 26" fill="none" xmlns="http://www.w3.org/2000/svg">
<path d="M22.4436 8.34358L15.8544 2.99906C15.0559 2.35448 14.0374 2 12.984 2C11.9307 2 10.9122 2.35448 10.1137 2.99906L3.52451 8.34358C3.04611 8.73229 2.66238 9.21295 2.39935 9.75301C2.13631 10.2931 2.00011 10.8799 2 11.4737V20.8939C2 21.3023 2.08584 21.7067 2.25261 22.0839C2.41938 22.4612 2.6638 22.8038 2.97188 23.0923C3.27997 23.3808 3.64568 23.6095 4.04807 23.7653C4.45046 23.921 4.88163 24.0008 5.31691 24H9.73731V17.1892C9.73731 16.3765 10.0814 15.5971 10.6939 15.0225C11.3063 14.4478 12.137 14.125 13.0032 14.125C13.8693 14.125 14.7 14.4478 15.3125 15.0225C15.925 15.5971 16.2691 16.3765 16.2691 17.1892V24H21.0786C21.8534 24 22.5965 23.7112 23.1443 23.1972C23.6922 22.6831 24 21.9859 24 21.2589V11.4737C23.9959 10.8776 23.8548 10.2893 23.5862 9.7491C23.3176 9.2089 22.9278 8.72949 22.4436 8.34358Z" stroke="#989BA2" stroke-width="3" stroke-linecap="round" stroke-linejoin="round"/>
</svg>
