<svg width="367" height="45" viewBox="0 0 367 45" fill="none" xmlns="http://www.w3.org/2000/svg">
<rect width="367" height="45" rx="6" fill="#FEE500"/>
<g clip-path="url(#clip0_1003_3949)">
<path fill-rule="evenodd" clip-rule="evenodd" d="M56.5 14.1001C51.5292 14.1001 47.5 17.2131 47.5 21.0524C47.5 23.4401 49.0584 25.5451 51.4315 26.7971L50.433 30.4446C50.3448 30.7669 50.7134 31.0238 50.9965 30.837L55.3733 27.9483C55.7427 27.9839 56.1181 28.0047 56.5 28.0047C61.4705 28.0047 65.4999 24.8919 65.4999 21.0524C65.4999 17.2131 61.4705 14.1001 56.5 14.1001Z" fill="black"/>
</g>
<path d="M158.715 16.215C158.7 20.79 156.615 23.85 152.79 25.86L151.8 24.75C153.735 23.865 155.355 22.44 156.27 20.595L152.355 21.015L152.115 19.68L156.78 19.335C156.945 18.735 157.065 18.12 157.11 17.46H152.79V16.215H158.715ZM162.33 14.82V20.04H164.4V21.315H162.33V28.185H160.785V14.82H162.33ZM171.694 16.215C171.679 20.79 169.594 23.85 165.769 25.86L164.779 24.75C166.714 23.865 168.334 22.44 169.249 20.595L165.334 21.015L165.094 19.68L169.759 19.335C169.924 18.735 170.044 18.12 170.089 17.46H165.769V16.215H171.694ZM175.309 14.82V20.04H177.379V21.315H175.309V28.185H173.764V14.82H175.309ZM189.982 26.475H177.907V25.245H183.157V22.965C180.682 22.725 179.107 21.315 179.107 19.32C179.107 17.115 181.042 15.645 183.937 15.645C186.877 15.645 188.797 17.115 188.797 19.32C188.797 21.33 187.192 22.74 184.687 22.98V25.245H189.982V26.475ZM187.252 19.335C187.252 17.91 185.947 16.905 183.937 16.905C181.972 16.905 180.652 17.91 180.652 19.335C180.652 20.745 181.972 21.705 183.937 21.705C185.932 21.705 187.252 20.745 187.252 19.335ZM205.731 23.025H201.606V25.26H206.901V26.49H194.826V25.26H200.076V23.025H196.371V18.705H203.811V16.98H196.326V15.75H205.341V19.95H197.916V21.78H205.731V23.025ZM219.879 26.235H207.804V24.99H219.879V26.235ZM218.304 16.26C218.304 19.8 218.079 22.305 217.719 24.06L216.204 23.865C216.534 22.53 216.759 19.635 216.759 17.475H209.199V16.26H218.304ZM231.778 24.51H230.248V14.82H231.778V24.51ZM232.093 27.795H222.943V23.595H224.473V26.565H232.093V27.795ZM228.028 19.08C228.028 20.985 226.648 22.35 224.608 22.35C222.568 22.35 221.158 20.985 221.158 19.095C221.158 17.19 222.553 15.81 224.608 15.81C226.648 15.81 228.028 17.175 228.028 19.08ZM226.498 19.08C226.498 17.91 225.778 17.085 224.608 17.085C223.468 17.085 222.703 17.94 222.703 19.08C222.703 20.175 223.468 21.045 224.608 21.045C225.778 21.045 226.498 20.175 226.498 19.08Z" fill="black" fill-opacity="0.85"/>
<defs>
<clipPath id="clip0_1003_3949">
<rect width="17.9999" height="18" fill="white" transform="translate(47.5 13.5)"/>
</clipPath>
</defs>
</svg>
