<svg width="135" height="24" viewBox="0 0 135 24" fill="none" xmlns="http://www.w3.org/2000/svg">
<path d="M0 15.6637H2.66069C2.79139 16.6444 3.18349 17.5049 3.837 18.245C4.4905 18.9851 5.34939 19.5588 6.41366 19.9658C7.49661 20.3544 8.73827 20.5487 10.1386 20.5487C12.2485 20.5487 13.9196 20.1972 15.1519 19.494C16.4029 18.7723 17.0284 17.8009 17.0284 16.5796C17.0284 15.6359 16.6363 14.9143 15.8521 14.4147C15.0866 13.9151 13.7422 13.5543 11.8191 13.3322L7.75801 12.8326C5.20001 12.5366 3.36087 11.9352 2.24058 11.0285C1.12029 10.1033 0.560145 8.86354 0.560145 7.30922C0.560145 6.06949 0.933579 4.99621 1.68044 4.08956C2.42729 3.16436 3.4729 2.46122 4.81725 1.98012C6.18027 1.48051 7.76735 1.23071 9.57849 1.23071C11.3896 1.23071 12.9954 1.50827 14.3957 2.06339C15.8147 2.6 16.935 3.35865 17.7566 4.33936C18.5968 5.30153 19.0543 6.43951 19.129 7.75331H16.4683C16.3562 6.86513 16.0015 6.10644 15.404 5.47734C14.8065 4.82968 14.0036 4.33008 12.9954 3.97853C12.0058 3.60845 10.8482 3.42342 9.52247 3.42342C7.59931 3.42342 6.05891 3.76574 4.90127 4.45038C3.76231 5.11652 3.19283 6.05093 3.19283 7.25371C3.19283 8.17893 3.56626 8.8913 4.31312 9.3909C5.07865 9.87203 6.36699 10.2236 8.17812 10.4456L12.1552 10.973C14.0036 11.195 15.4694 11.5188 16.5523 11.9444C17.6539 12.3701 18.4474 12.9436 18.9329 13.6653C19.4184 14.3685 19.6611 15.2658 19.6611 16.3576C19.6611 17.6714 19.2596 18.8094 18.4568 19.7716C17.6726 20.7337 16.5617 21.4739 15.1239 21.992C13.6862 22.5101 12.0151 22.7692 10.1106 22.7692C8.18746 22.7692 6.47902 22.4731 4.98529 21.881C3.49157 21.2704 2.30593 20.4377 1.42837 19.383C0.550809 18.3098 0.0746858 17.07 0 15.6637ZM29.323 2.84055H31.9557V22.4083H29.323V2.84055ZM20.3047 1.59154H40.974V3.89526H20.3047V1.59154ZM42.231 17.2458V15.0253H57.0189V17.2458H42.231ZM51.2774 1.59154L61.6121 22.4083H58.7553L49.0368 2.47972H50.4371L40.6906 22.4083H37.8339L48.1686 1.59154H51.2774ZM84.9704 14.3869C84.7836 16.0338 84.1955 17.4956 83.2059 18.7723C82.2163 20.0306 80.9186 21.0113 79.3129 21.7145C77.7258 22.4176 75.9053 22.7692 73.8515 22.7692C71.5362 22.7692 69.501 22.3158 67.7459 21.4091C66.0095 20.5025 64.6557 19.2442 63.6849 17.6344C62.7139 16.0061 62.2285 14.1279 62.2285 11.9999C62.2285 9.85347 62.7139 7.97536 63.6849 6.36553C64.6557 4.75569 66.0095 3.49743 67.7459 2.59074C69.501 1.68406 71.5362 1.23071 73.8515 1.23071C75.9053 1.23071 77.7258 1.58228 79.3129 2.28543C80.9186 2.98858 82.2163 3.96928 83.2059 5.22754C84.1955 6.46727 84.7836 7.91985 84.9704 9.58519H82.3097C82.0856 8.36394 81.6002 7.30922 80.8533 6.42104C80.1064 5.51438 79.1355 4.82049 77.9406 4.33936C76.7455 3.83975 75.3732 3.58995 73.8235 3.58995C72.0123 3.58995 70.4346 3.93228 69.0902 4.61691C67.7646 5.30153 66.7376 6.27298 66.0095 7.53127C65.2813 8.78956 64.9172 10.2791 64.9172 11.9999C64.9172 13.7023 65.2813 15.1826 66.0095 16.4409C66.7376 17.6992 67.7646 18.6798 69.0902 19.383C70.4346 20.0676 72.0123 20.4099 73.8235 20.4099C75.3732 20.4099 76.7455 20.1694 77.9406 19.6883C79.1355 19.1887 80.1064 18.4948 80.8533 17.6066C81.6002 16.6999 82.0856 15.6267 82.3097 14.3869H84.9704ZM88.6771 22.4083V1.59154H91.3098V20.0769L90.3856 19.6605L105.566 1.59154H108.478L90.9737 22.4083H88.6771ZM98.6477 11.6669L100.412 9.64071L108.814 22.4083H105.762L98.6477 11.6669Z" fill="#393940"/>
<path d="M131.877 11.8909L132.933 12.1642L131.863 12.378C131.581 12.4344 131.289 12.464 130.99 12.464H126.291C125.625 12.464 125 12.6289 124.46 12.917C124.607 13.5443 124.939 14.1423 125.458 14.6334L125.306 14.793L125.458 14.6334L128.461 17.4786C128.461 17.4787 128.461 17.4787 128.461 17.4787C128.735 17.7378 128.963 18.0241 129.147 18.3289L129.679 19.2119L128.801 18.6707C128.559 18.5212 128.33 18.3457 128.117 18.1443C128.117 18.1443 128.117 18.1443 128.117 18.1442L124.794 14.9964L124.794 14.9964C124.322 14.5487 123.753 14.2458 123.149 14.0886C122.778 14.6357 122.564 15.2848 122.564 15.9809V20.0047C122.564 20.3729 122.512 20.73 122.414 21.0694L122.142 22.0101L121.93 21.0542C121.87 20.7847 121.838 20.5051 121.838 20.2187V15.7669C121.838 15.1404 121.665 14.5521 121.36 14.042C120.683 14.1809 120.04 14.4995 119.515 14.9965L119.515 14.9965L116.512 17.8416L116.512 17.8417C116.238 18.1007 115.937 18.3168 115.617 18.4899L114.702 18.9848L115.292 18.1282C115.45 17.8981 115.636 17.6801 115.849 17.4785L119.171 14.3308C119.637 13.889 119.953 13.3608 120.119 12.8029C119.54 12.4533 118.852 12.25 118.112 12.25H113.865C113.48 12.25 113.107 12.201 112.752 12.1091L111.696 11.8356L112.765 11.6219C113.047 11.5656 113.34 11.536 113.639 11.536H118.338C119.005 11.536 119.629 11.3711 120.169 11.0829C120.021 10.4557 119.69 9.85775 119.171 9.36657L116.168 6.52134C116.168 6.52133 116.168 6.52133 116.168 6.52133C115.894 6.26219 115.666 5.97588 115.482 5.67107L114.95 4.7879L115.827 5.3293C116.07 5.47884 116.299 5.65433 116.512 5.85566C116.512 5.85568 116.512 5.85571 116.512 5.85573L119.835 9.00358L119.835 9.00363C120.307 9.45131 120.876 9.75418 121.48 9.91145C121.85 9.36432 122.064 8.71515 122.064 8.01905V3.99531C122.064 3.62707 122.116 3.27003 122.214 2.93062L122.486 1.98978L122.699 2.94576C122.759 3.21535 122.79 3.4949 122.79 3.78129V8.23315C122.79 8.85971 122.964 9.44798 123.269 9.95795C123.946 9.81909 124.589 9.50056 125.114 9.00359L125.265 9.16311L125.114 9.00358L128.117 6.15834L128.117 6.15833C128.391 5.89928 128.692 5.68328 129.012 5.51011L129.927 5.01489L129.337 5.87169C129.178 6.10193 128.993 6.31984 128.781 6.52126L128.781 6.52133L125.458 9.66925L125.458 9.66928C124.991 10.111 124.676 10.6391 124.51 11.1971C125.089 11.5468 125.776 11.75 126.516 11.75H130.764C131.149 11.75 131.522 11.799 131.877 11.8909Z" fill="#0283F5" stroke="#0283F5" stroke-width="0.5" stroke-miterlimit="5.75877" stroke-linecap="round"/>
</svg>
