<svg width="131" height="23" viewBox="0 0 131 23" fill="none" xmlns="http://www.w3.org/2000/svg">
<path d="M0 15.1639H2.66069C2.79139 16.1447 3.18349 17.0051 3.837 17.7452C4.4905 18.4854 5.34939 19.059 6.41366 19.4661C7.49661 19.8547 8.73827 20.049 10.1386 20.049C12.2485 20.049 13.9196 19.6974 15.1519 18.9942C16.4029 18.2726 17.0284 17.3011 17.0284 16.0799C17.0284 15.1362 16.6363 14.4145 15.8521 13.9149C15.0866 13.4153 13.7422 13.0545 11.8191 12.8325L7.75801 12.3329C5.20001 12.0368 3.36087 11.4354 2.24058 10.5287C1.12029 9.60352 0.560145 8.36379 0.560145 6.80947C0.560145 5.56974 0.933579 4.49646 1.68044 3.5898C2.42729 2.6646 3.4729 1.96146 4.81725 1.48036C6.18027 0.980759 7.76735 0.730957 9.57849 0.730957C11.3896 0.730957 12.9954 1.00851 14.3957 1.56363C15.8147 2.10024 16.935 2.8589 17.7566 3.8396C18.5968 4.80177 19.0543 5.93976 19.129 7.25356H16.4683C16.3562 6.36537 16.0015 5.60669 15.404 4.97759C14.8065 4.32992 14.0036 3.83032 12.9954 3.47878C12.0058 3.1087 10.8482 2.92366 9.52247 2.92366C7.59931 2.92366 6.05891 3.26598 4.90127 3.95062C3.76231 4.61676 3.19283 5.55118 3.19283 6.75395C3.19283 7.67917 3.56626 8.39154 4.31312 8.89115C5.07865 9.37227 6.36699 9.72382 8.17812 9.94587L12.1552 10.4732C14.0036 10.6953 15.4694 11.0191 16.5523 11.4447C17.6539 11.8703 18.4474 12.4439 18.9329 13.1655C19.4184 13.8687 19.6611 14.7661 19.6611 15.8578C19.6611 17.1716 19.2596 18.3096 18.4568 19.2718C17.6726 20.234 16.5617 20.9742 15.1239 21.4923C13.6862 22.0103 12.0151 22.2694 10.1106 22.2694C8.18746 22.2694 6.47902 21.9734 4.98529 21.3812C3.49157 20.7706 2.30593 19.9379 1.42837 18.8832C0.550809 17.81 0.0746858 16.5702 0 15.1639ZM29.323 2.34079H31.9557V21.9086H29.323V2.34079ZM20.3047 1.09178H40.974V3.39551H20.3047V1.09178ZM42.231 16.746V14.5256H57.0189V16.746H42.231ZM51.2774 1.09178L61.6121 21.9086H58.7553L49.0368 1.97997H50.4371L40.6906 21.9086H37.8339L48.1686 1.09178H51.2774ZM84.9704 13.8872C84.7836 15.5341 84.1955 16.9958 83.2059 18.2726C82.2163 19.5309 80.9186 20.5115 79.3129 21.2147C77.7258 21.9179 75.9053 22.2694 73.8515 22.2694C71.5362 22.2694 69.501 21.816 67.7459 20.9094C66.0095 20.0027 64.6557 18.7444 63.6849 17.1346C62.7139 15.5063 62.2285 13.6281 62.2285 11.5002C62.2285 9.35371 62.7139 7.4756 63.6849 5.86577C64.6557 4.25594 66.0095 2.99767 67.7459 2.09099C69.501 1.1843 71.5362 0.730957 73.8515 0.730957C75.9053 0.730957 77.7258 1.08253 79.3129 1.78568C80.9186 2.48882 82.2163 3.46952 83.2059 4.72779C84.1955 5.96751 84.7836 7.42009 84.9704 9.08544H82.3097C82.0856 7.86418 81.6002 6.80947 80.8533 5.92128C80.1064 5.01462 79.1355 4.32073 77.9406 3.8396C76.7455 3.34 75.3732 3.0902 73.8235 3.0902C72.0123 3.0902 70.4346 3.43252 69.0902 4.11716C67.7646 4.80177 66.7376 5.77322 66.0095 7.03151C65.2813 8.2898 64.9172 9.77933 64.9172 11.5002C64.9172 13.2026 65.2813 14.6828 66.0095 15.9411C66.7376 17.1994 67.7646 18.18 69.0902 18.8832C70.4346 19.5678 72.0123 19.9102 73.8235 19.9102C75.3732 19.9102 76.7455 19.6697 77.9406 19.1885C79.1355 18.6889 80.1064 17.995 80.8533 17.1068C81.6002 16.2002 82.0856 15.1269 82.3097 13.8872H84.9704ZM88.6771 21.9086V1.09178H91.3098V19.5771L90.3856 19.1608L105.566 1.09178H108.478L90.9737 21.9086H88.6771ZM98.6477 11.1671L100.412 9.14095L108.814 21.9086H105.762L98.6477 11.1671Z" fill="#393940"/>
<mask id="mask0_978_734" style="mask-type:luminance" maskUnits="userSpaceOnUse" x="108" y="0" width="23" height="23">
<path d="M130.861 0.876465H108.814V22.1235H130.861V0.876465Z" fill="white"/>
</mask>
<g mask="url(#mask0_978_734)">
<mask id="mask1_978_734" style="mask-type:luminance" maskUnits="userSpaceOnUse" x="108" y="0" width="23" height="23">
<path d="M130.861 0.876465H108.814V22.1235H130.861V0.876465Z" fill="white"/>
</mask>
<g mask="url(#mask1_978_734)">
<path fill-rule="evenodd" clip-rule="evenodd" d="M129.641 11.5C130.063 11.5 130.472 11.4454 130.861 11.3432C130.552 11.2804 130.232 11.2474 129.904 11.2474H124.451C123.551 11.2474 122.71 10.9987 122 10.5687C122.155 9.69291 122.584 8.85333 123.285 8.17729L126.77 4.81879C127.069 4.53122 127.317 4.21405 127.517 3.8771C127.252 4.04312 127.002 4.23792 126.77 4.46152L122.914 8.17729C122.278 8.791 121.501 9.18778 120.683 9.36772C120.151 8.6426 119.837 7.75703 119.837 6.80097V2.05135C119.837 1.64466 119.781 1.25072 119.675 0.876465C119.61 1.174 119.575 1.4825 119.575 1.79871V7.05359C119.575 7.92151 119.317 8.7314 118.871 9.41577C117.962 9.26617 117.091 8.85333 116.39 8.17723L112.905 4.81879C112.606 4.53122 112.277 4.29126 111.928 4.09894C112.1 4.35371 112.302 4.5952 112.535 4.81879L116.39 8.53457C117.026 9.14828 117.438 9.89678 117.625 10.6848C116.873 11.1982 115.954 11.5 114.962 11.5H110.034C109.612 11.5 109.203 11.5546 108.814 11.6569C109.123 11.7196 109.443 11.7526 109.771 11.7526H115.224C116.125 11.7526 116.965 12.0013 117.675 12.4314C117.52 13.307 117.091 14.1466 116.39 14.8227L112.905 18.1812C112.606 18.4688 112.358 18.786 112.158 19.1229C112.423 18.9569 112.673 18.762 112.905 18.5385L116.761 14.8227C117.397 14.209 118.174 13.8122 118.992 13.6322C119.524 14.3574 119.837 15.243 119.837 16.1991V20.9487C119.837 21.3554 119.894 21.7493 120 22.1235C120.065 21.826 120.1 21.5175 120.1 21.2013V15.9464C120.1 15.0784 120.358 14.2686 120.804 13.5842C121.713 13.7338 122.584 14.1466 123.285 14.8227L126.77 18.1812C127.069 18.4688 127.398 18.7087 127.747 18.9011C127.575 18.6463 127.373 18.4048 127.141 18.1812L123.285 14.4654C122.648 13.8517 122.237 13.1032 122.05 12.3152C122.802 11.8017 123.721 11.5 124.713 11.5H129.641Z" fill="url(#paint0_linear_978_734)"/>
</g>
</g>
<defs>
<linearGradient id="paint0_linear_978_734" x1="119.837" y1="0.876465" x2="119.837" y2="22.1235" gradientUnits="userSpaceOnUse">
<stop stop-color="#0062FF"/>
<stop offset="1" stop-color="#ADD6FF"/>
</linearGradient>
</defs>
</svg>
