<svg width="28" height="28" viewBox="0 0 28 28" fill="none" xmlns="http://www.w3.org/2000/svg">
<path d="M14 15.1666C14.6443 15.1666 15.1666 14.6443 15.1666 13.9999C15.1666 13.3556 14.6443 12.8333 14 12.8333C13.3556 12.8333 12.8333 13.3556 12.8333 13.9999C12.8333 14.6443 13.3556 15.1666 14 15.1666Z" fill="#989BA2"/>
<path d="M22.1666 15.1666C22.811 15.1666 23.3333 14.6443 23.3333 13.9999C23.3333 13.3556 22.811 12.8333 22.1666 12.8333C21.5223 12.8333 21 13.3556 21 13.9999C21 14.6443 21.5223 15.1666 22.1666 15.1666Z" fill="#989BA2"/>
<path d="M5.83329 15.1666C6.47762 15.1666 6.99996 14.6443 6.99996 13.9999C6.99996 13.3556 6.47762 12.8333 5.83329 12.8333C5.18896 12.8333 4.66663 13.3556 4.66663 13.9999C4.66663 14.6443 5.18896 15.1666 5.83329 15.1666Z" fill="#989BA2"/>
<path d="M14 15.1666C14.6443 15.1666 15.1666 14.6443 15.1666 13.9999C15.1666 13.3556 14.6443 12.8333 14 12.8333C13.3556 12.8333 12.8333 13.3556 12.8333 13.9999C12.8333 14.6443 13.3556 15.1666 14 15.1666Z" stroke="#989BA2" stroke-width="3" stroke-linecap="round" stroke-linejoin="round"/>
<path d="M22.1666 15.1666C22.811 15.1666 23.3333 14.6443 23.3333 13.9999C23.3333 13.3556 22.811 12.8333 22.1666 12.8333C21.5223 12.8333 21 13.3556 21 13.9999C21 14.6443 21.5223 15.1666 22.1666 15.1666Z" stroke="#989BA2" stroke-width="3" stroke-linecap="round" stroke-linejoin="round"/>
<path d="M5.83329 15.1666C6.47762 15.1666 6.99996 14.6443 6.99996 13.9999C6.99996 13.3556 6.47762 12.8333 5.83329 12.8333C5.18896 12.8333 4.66663 13.3556 4.66663 13.9999C4.66663 14.6443 5.18896 15.1666 5.83329 15.1666Z" stroke="#989BA2" stroke-width="3" stroke-linecap="round" stroke-linejoin="round"/>
</svg>