<svg width="30" height="30" viewBox="0 0 30 30" fill="none" xmlns="http://www.w3.org/2000/svg">
<path d="M22.7877 20.6024C22.3839 19.9044 22.646 19.0244 23.373 18.6367L27.2216 16.5846C27.9486 16.1969 28.8652 16.4485 29.269 17.1465C29.6727 17.8444 29.4107 18.7245 28.6837 19.1121L24.8351 21.1643C24.1081 21.5519 23.1915 21.3004 22.7877 20.6024Z" fill="#989BA2"/>
<path d="M7.21242 20.6024C7.61617 19.9044 7.35415 19.0244 6.62716 18.6367L2.77853 16.5846C2.05155 16.1969 1.13491 16.4485 0.731154 17.1465C0.3274 17.8444 0.589429 18.7245 1.31641 19.1121L5.16504 21.1643C5.89202 21.5519 6.80867 21.3004 7.21242 20.6024Z" fill="#989BA2"/>
<rect width="3.36823" height="2.30286" rx="1.15143" transform="matrix(0.99053 -0.137294 0.148697 0.988883 12.2203 0.462402)" fill="#00E5FF"/>
<path fill-rule="evenodd" clip-rule="evenodd" d="M3.62547 3.78201C2.70639 3.93265 2.08853 4.7701 2.24544 5.65249C2.29878 5.95247 2.43479 6.21902 2.6272 6.43428L2.34635 6.48032C1.52663 6.61468 0.975566 7.36159 1.11551 8.14859C1.25545 8.93559 2.03341 9.46467 2.85313 9.33031L26.151 5.51162C26.9707 5.37726 27.5218 4.63035 27.3819 3.84335C27.2419 3.05634 26.464 2.52727 25.6442 2.66163L25.3634 2.70766C25.4705 2.4433 25.5067 2.14852 25.4534 1.84855C25.2965 0.966151 24.4242 0.372946 23.5051 0.52359L3.62547 3.78201Z" fill="#989BA2"/>
<path d="M0 11.4707C0 10.9834 0.697512 10.5884 1.55794 10.5884H26.0128C26.8733 10.5884 27.5708 10.9834 27.5708 11.4707C27.5708 11.958 26.8733 12.3531 26.0128 12.3531H1.55794C0.697513 12.3531 0 11.958 0 11.4707Z" fill="#989BA2"/>
<path d="M0 11.4707C0 10.9834 0.697512 10.5884 1.55794 10.5884H26.0128C26.8733 10.5884 27.5708 10.9834 27.5708 11.4707C27.5708 11.958 26.8733 12.3531 26.0128 12.3531H1.55794C0.697513 12.3531 0 11.958 0 11.4707Z" fill="#989BA2"/>
<path fill-rule="evenodd" clip-rule="evenodd" d="M1.55798 10.5884C0.69753 10.5884 0 10.9834 0 11.4707C0 11.958 0.697531 12.3531 1.55798 12.3531H5.28838C5.28791 12.3442 5.28768 12.3353 5.28768 12.3263C5.28768 11.839 5.98521 11.444 6.84565 11.444H27.5708C27.5458 10.9691 26.8581 10.5884 26.0135 10.5884H1.55798Z" fill="#989BA2"/>
<path d="M3.67615 12.353H25.7328V27.1507C25.7328 28.7243 24.4356 30 22.8355 30H6.57341C4.9733 30 3.67615 28.7243 3.67615 27.1507V12.353Z" fill="#989BA2"/>
</svg>
