<svg xmlns="http://www.w3.org/2000/svg" width="30" height="30" viewBox="0 0 30 30" fill="none">
<path d="M22.7877 20.6022C22.3839 19.9042 22.646 19.0241 23.373 18.6365L27.2216 16.5843C27.9486 16.1967 28.8652 16.4483 29.269 17.1462C29.6727 17.8442 29.4107 18.7243 28.6837 19.1119L24.8351 21.1641C24.1081 21.5517 23.1915 21.3001 22.7877 20.6022Z" fill="currentColor"/>
<path d="M7.2123 20.6022C7.61605 19.9042 7.35402 19.0241 6.62704 18.6365L2.77841 16.5843C2.05143 16.1967 1.13479 16.4483 0.731032 17.1462C0.327278 17.8442 0.589306 18.7243 1.31629 19.1119L5.16492 21.1641C5.8919 21.5517 6.80854 21.3001 7.2123 20.6022Z" fill="currentColor"/>
<rect width="3.36823" height="2.30286" rx="1.15143" transform="matrix(0.99053 -0.137294 0.148697 0.988883 12.2202 0.462402)" fill="#00E5FF"/>
<path fill-rule="evenodd" clip-rule="evenodd" d="M3.62547 3.78225C2.70639 3.9329 2.08853 4.77034 2.24544 5.65274C2.29878 5.95271 2.43479 6.21926 2.6272 6.43453L2.34635 6.48056C1.52663 6.61492 0.975566 7.36183 1.11551 8.14883C1.25545 8.93584 2.03341 9.46491 2.85313 9.33055L26.151 5.51186C26.9707 5.37751 27.5218 4.6306 27.3819 3.84359C27.2419 3.05659 26.464 2.52751 25.6442 2.66187L25.3634 2.70791C25.4705 2.44354 25.5067 2.14876 25.4534 1.84879C25.2965 0.966395 24.4242 0.37319 23.5051 0.523834L3.62547 3.78225Z" fill="currentColor"/>
<path d="M0 11.4707C0 10.9834 0.697512 10.5884 1.55794 10.5884H26.0128C26.8733 10.5884 27.5708 10.9834 27.5708 11.4707C27.5708 11.958 26.8733 12.3531 26.0128 12.3531H1.55794C0.697513 12.3531 0 11.958 0 11.4707Z" fill="currentColor"/>
<path d="M0 11.4707C0 10.9834 0.697512 10.5884 1.55794 10.5884H26.0128C26.8733 10.5884 27.5708 10.9834 27.5708 11.4707C27.5708 11.958 26.8733 12.3531 26.0128 12.3531H1.55794C0.697513 12.3531 0 11.958 0 11.4707Z" fill="currentColor"/>
<path fill-rule="evenodd" clip-rule="evenodd" d="M1.55798 10.5884C0.69753 10.5884 0 10.9834 0 11.4707C0 11.958 0.697531 12.3531 1.55798 12.3531H5.28838C5.28791 12.3442 5.28768 12.3353 5.28768 12.3263C5.28768 11.839 5.98521 11.444 6.84565 11.444H27.5708C27.5458 10.9691 26.8581 10.5884 26.0135 10.5884H1.55798Z" fill="currentColor"/>
<path d="M3.67627 12.353H25.7329V27.1507C25.7329 28.7243 24.4357 30 22.8356 30H6.57354C4.97342 30 3.67627 28.7243 3.67627 27.1507V12.353Z" fill="currentColor"/>
</svg>