<svg width="20" height="21" viewBox="0 0 20 21" fill="none" xmlns="http://www.w3.org/2000/svg">
<ellipse cx="17.1428" cy="1.95238" rx="0.952381" ry="0.952381" fill="#00E5FF"/>
<path d="M12.8283 1.00187C13.327 1.75928 13.8265 3.56168 11.8341 4.71198" stroke="#767676" stroke-linecap="round"/>
<ellipse cx="10.4762" cy="2.90477" rx="0.952381" ry="0.952381" fill="#00E5FF"/>
<path d="M13.3333 6.43433C14.2029 7.19255 14.9482 6.2177 14.9482 5.78443C14.9482 5.35116 15.8178 4.70126 16.9358 5.67611C18.0538 6.65097 19.0476 5.45947 19.0476 4.80957" stroke="#767676" stroke-linecap="round"/>
<path d="M14.1449 9.26261C14.7474 8.58478 16.3591 7.63583 17.9859 9.26261" stroke="#767676" stroke-linecap="round"/>
<circle cx="18.0952" cy="11.4763" r="0.952381" fill="#00E5FF"/>
<path d="M6.43935 15.8563C5.62723 16.1742 4.82578 15.3727 5.14365 14.5606L8.55468 5.84599C8.81752 5.17449 9.6831 4.99347 10.193 5.50337L15.4966 10.807C16.0065 11.3169 15.8255 12.1825 15.154 12.4453L6.43935 15.8563Z" fill="#F3F3F3"/>
</svg>
