<svg width="25" height="26" viewBox="0 0 25 26" fill="none" xmlns="http://www.w3.org/2000/svg">
<path fill-rule="evenodd" clip-rule="evenodd" d="M23.6173 13C24.0962 13 24.5596 12.9358 25 12.8154C24.65 12.7416 24.2872 12.7028 23.9147 12.7028H17.7321C16.7109 12.7028 15.7577 12.4101 14.9526 11.9042C15.1282 10.8737 15.6141 9.88583 16.4096 9.09038L20.3615 5.13867C20.7 4.8003 20.9821 4.42712 21.2083 4.03065C20.9083 4.22599 20.6244 4.4552 20.3615 4.71829L15.9891 9.09038C15.2673 9.8125 14.3865 10.2794 13.459 10.4911C12.8551 9.63788 12.5 8.5959 12.5 7.47096V1.88241C12.5 1.40388 12.4359 0.940362 12.3154 0.5C12.2417 0.850088 12.2026 1.21308 12.2026 1.58515V7.7682C12.2026 8.78942 11.9103 9.74237 11.4045 10.5476C10.3737 10.3716 9.3859 9.88583 8.59039 9.09032L4.63846 5.13867C4.29999 4.8003 3.92692 4.51796 3.53077 4.29167C3.72628 4.59144 3.95512 4.87559 4.21859 5.13867L8.59039 9.51077C9.31218 10.2329 9.77949 11.1136 9.99102 12.0408C9.13782 12.6449 8.09615 13 6.97115 13H1.38269C0.903845 13 0.440385 13.0642 0 13.1846C0.35 13.2584 0.712816 13.2972 1.08525 13.2972H7.26795C8.28974 13.2972 9.2423 13.5899 10.0474 14.0959C9.87179 15.1262 9.3859 16.1141 8.59039 16.9096L4.63846 20.8613C4.29999 21.1997 4.01794 21.5729 3.79166 21.9694C4.09166 21.774 4.37564 21.5447 4.63846 21.2817L9.0109 16.9096C9.7327 16.1875 10.6135 15.7206 11.541 15.5088C12.1449 16.3621 12.5 17.4041 12.5 18.5291V24.1176C12.5 24.5962 12.5641 25.0596 12.6846 25.5C12.7583 25.1499 12.7974 24.7869 12.7974 24.4149V18.2317C12.7974 17.2105 13.0897 16.2576 13.5962 15.4524C14.6263 15.6284 15.6141 16.1141 16.4096 16.9096L20.3615 20.8613C20.7 21.1997 21.0731 21.482 21.4692 21.7084C21.2737 21.4085 21.0449 21.1244 20.782 20.8613L16.4096 16.4892C15.6872 15.7671 15.2205 14.8863 15.009 13.9592C15.8622 13.355 16.9038 13 18.0288 13H23.6173Z" fill="currentColor"/>
</svg>
