<svg xmlns="http://www.w3.org/2000/svg" width="32" height="32" viewBox="0 0 32 32" fill="none">
<path d="M32 16C32 24.8366 24.8366 32 16 32C7.16344 32 0 24.8366 0 16C0 7.16344 7.16344 0 16 0C24.8366 0 32 7.16344 32 16Z" fill="#D9D9D9"/>
<path d="M5.90768 28.4162C6.77353 24.1551 10.9627 20.9231 16 20.9231C21.0373 20.9231 25.2265 24.1551 26.0923 28.4162C23.3391 30.6568 19.8264 32 16 32C12.1736 32 8.66087 30.6568 5.90768 28.4162Z" fill="white"/>
<path d="M20.9878 13.952C20.9878 16.7276 18.7377 18.9776 15.9621 18.9776C13.1865 18.9776 10.9365 16.7276 10.9365 13.952C10.9365 11.1764 13.1865 8.92636 15.9621 8.92636C18.7377 8.92636 20.9878 11.1764 20.9878 13.952Z" fill="white"/>
</svg>