<svg width="40" height="40" viewBox="0 0 40 40" fill="none" xmlns="http://www.w3.org/2000/svg">
<path fill-rule="evenodd" clip-rule="evenodd" d="M37.7877 20C38.5538 20 39.2954 19.8972 40 19.7047C39.44 19.5866 38.8595 19.5244 38.2636 19.5244H28.3713C26.7374 19.5244 25.2123 19.0562 23.9241 18.2467C24.2051 16.5979 24.9826 15.0173 26.2554 13.7446L32.5785 7.42188C33.12 6.88048 33.5713 6.28338 33.9333 5.64904C33.4533 5.96158 32.999 6.32832 32.5785 6.74926L25.5826 13.7446C24.4277 14.9 23.0185 15.647 21.5344 15.9857C20.5682 14.6206 20 12.9534 20 11.1535V2.21186C20 1.44622 19.8974 0.704579 19.7046 0C19.5867 0.560142 19.5241 1.14093 19.5241 1.73624V11.6291C19.5241 13.2631 19.0564 14.7878 18.2472 16.0762C16.5979 15.7946 15.0174 15.0173 13.7446 13.7445L7.42153 7.42188C6.87999 6.88048 6.28307 6.42874 5.64923 6.06668C5.96205 6.5463 6.3282 7.00094 6.74974 7.42188L13.7446 14.4172C14.8995 15.5726 15.6472 16.9817 15.9856 18.4652C14.6205 19.4319 12.9538 20 11.1538 20H2.21231C1.44615 20 0.704615 20.1028 0 20.2954C0.56 20.4134 1.14051 20.4756 1.7364 20.4756H11.6287C13.2636 20.4756 14.7877 20.9438 16.0759 21.7534C15.7949 23.4019 15.0174 24.9826 13.7446 26.2554L7.42153 32.5782C6.87999 33.1196 6.42871 33.7166 6.06666 34.351C6.54666 34.0384 7.00102 33.6716 7.42153 33.2508L14.4174 26.2554C15.5723 25.1 16.9815 24.353 18.4656 24.0142C19.4318 25.3794 20 27.0466 20 28.8466V37.7882C20 38.5538 20.1026 39.2954 20.2954 40C20.4133 39.4398 20.4759 38.859 20.4759 38.2638V28.3708C20.4759 26.7368 20.9436 25.2122 21.7539 23.9238C23.4021 24.2054 24.9826 24.9826 26.2554 26.2554L32.5785 32.5782C33.12 33.1196 33.7169 33.5712 34.3508 33.9334C34.038 33.4536 33.6718 32.999 33.2513 32.5782L26.2554 25.5828C25.0995 24.4274 24.3528 23.0182 24.0144 21.5348C25.3795 20.568 27.0462 20 28.8462 20H37.7877Z" fill="#989BA2"/>
</svg>

