<svg width="14" height="14" viewBox="0 0 14 14" fill="none" xmlns="http://www.w3.org/2000/svg">
<mask id="mask0_6328_20258" style="mask-type:alpha" maskUnits="userSpaceOnUse" x="2" y="2" width="10" height="10">
<path d="M10.4993 7.58268H7.58268V10.4993C7.58268 10.8202 7.32018 11.0827 6.99935 11.0827C6.67852 11.0827 6.41602 10.8202 6.41602 10.4993V7.58268H3.49935C3.17852 7.58268 2.91602 7.32018 2.91602 6.99935C2.91602 6.67852 3.17852 6.41602 3.49935 6.41602H6.41602V3.49935C6.41602 3.17852 6.67852 2.91602 6.99935 2.91602C7.32018 2.91602 7.58268 3.17852 7.58268 3.49935V6.41602H10.4993C10.8202 6.41602 11.0827 6.67852 11.0827 6.99935C11.0827 7.32018 10.8202 7.58268 10.4993 7.58268Z" fill="black"/>
</mask>
<g mask="url(#mask0_6328_20258)">
<rect width="14" height="14" fill="white"/>
</g>
</svg>