<svg width="32" height="33" viewBox="0 0 32 33" fill="none" xmlns="http://www.w3.org/2000/svg">
<g clip-path="url(#clip0_766_39166)">
<path d="M27.1487 17.5396C27.6948 16.3042 27.9981 14.9376 27.9981 13.5C27.9981 7.97716 23.5213 3.5 17.9991 3.5C12.4767 3.5 8 7.97716 8 13.5C8 19.0229 12.4767 23.5 17.9991 23.5C19.777 23.5 21.4466 23.0359 22.8932 22.2222L28 23.499L27.1487 17.5396Z" fill="#5FB5F7" stroke="#5FB5F7" stroke-width="2" stroke-linecap="round" stroke-linejoin="round"/>
<path d="M7 29L18 18.5M18 18.5H8M18 18.5V28.5" stroke="white" stroke-width="5" stroke-linecap="round" stroke-linejoin="round"/>
<path d="M7.5752 18H17.5752C17.7323 18 17.8405 18.0477 17.9336 18.1406C18.0269 18.2339 18.0752 18.3426 18.0752 18.5V28.5C18.0752 28.6574 18.0269 28.7661 17.9336 28.8594C17.8405 28.9523 17.7323 29 17.5752 29C17.4178 29 17.3091 28.9526 17.2158 28.8594C17.1225 28.7661 17.0752 28.6574 17.0752 28.5V19.6934L16.2217 20.5469L7.32129 29.4463C7.24089 29.5267 7.13888 29.5752 6.97461 29.5752C6.81063 29.5751 6.70923 29.5266 6.62891 29.4463C6.5485 29.3659 6.5 29.2639 6.5 29.0996C6.50006 28.9766 6.52683 28.8885 6.57422 28.8184L6.62891 28.7539L15.5283 19.8535L16.3818 19H7.5752C7.41783 19 7.30907 18.9526 7.21582 18.8594C7.12255 18.7661 7.0752 18.6574 7.0752 18.5C7.0752 18.3426 7.12255 18.2339 7.21582 18.1406C7.30907 18.0474 7.41783 18 7.5752 18Z" fill="#5FB5F7" stroke="#5FB5F7"/>
</g>
<defs>
<clipPath id="clip0_766_39166">
<rect width="25" height="29" fill="white" transform="translate(4 2.5)"/>
</clipPath>
</defs>
</svg>
