<svg width="20" height="20" viewBox="0 0 20 20" fill="none" xmlns="http://www.w3.org/2000/svg">
<path d="M15.1917 13.7331C14.9226 13.2678 15.0972 12.6811 15.5819 12.4227L18.1476 11.0546C18.6323 10.7962 19.2434 10.9639 19.5126 11.4292C19.7817 11.8945 19.607 12.4812 19.1224 12.7396L16.5566 14.1077C16.072 14.3662 15.4609 14.1985 15.1917 13.7331Z" fill="#2098F3"/>
<path d="M4.80828 13.7331C5.07745 13.2678 4.90276 12.6811 4.41811 12.4227L1.85236 11.0546C1.3677 10.7962 0.756606 10.9639 0.487437 11.4292C0.218267 11.8945 0.392953 12.4812 0.877607 12.7396L3.44336 14.1077C3.92802 14.3662 4.53911 14.1985 4.80828 13.7331Z" fill="#2098F3"/>
<rect width="2.24549" height="1.53524" rx="0.767621" transform="matrix(0.99053 -0.137294 0.148697 0.988883 8.14697 0.308594)" fill="#2098F3"/>
<path fill-rule="evenodd" clip-rule="evenodd" d="M2.41698 2.52215C1.80426 2.62258 1.39235 3.18088 1.49696 3.76914C1.53252 3.96912 1.62319 4.14682 1.75147 4.29034L1.56423 4.32103C1.01776 4.4106 0.650378 4.90854 0.743672 5.43321C0.836967 5.95788 1.35561 6.31059 1.90208 6.22102L17.434 3.67523C17.9805 3.58565 18.3479 3.08771 18.2546 2.56305C18.1613 2.03838 17.6426 1.68566 17.0962 1.77523L16.9089 1.80592C16.9803 1.62968 17.0045 1.43316 16.9689 1.23318C16.8643 0.644914 16.2828 0.249445 15.6701 0.349874L2.41698 2.52215Z" fill="#2098F3"/>
<path d="M0 7.64683C0 7.32195 0.465008 7.05859 1.03862 7.05859H17.3419C17.9155 7.05859 18.3805 7.32195 18.3805 7.64683C18.3805 7.9717 17.9155 8.23506 17.3419 8.23506H1.03863C0.465008 8.23506 0 7.9717 0 7.64683Z" fill="#2098F3"/>
<path d="M0 7.64683C0 7.32195 0.465008 7.05859 1.03862 7.05859H17.3419C17.9155 7.05859 18.3805 7.32195 18.3805 7.64683C18.3805 7.9717 17.9155 8.23506 17.3419 8.23506H1.03863C0.465009 8.23506 0 7.9717 0 7.64683Z" fill="#2098F3"/>
<path fill-rule="evenodd" clip-rule="evenodd" d="M1.03865 7.05859C0.46502 7.05859 0 7.32195 0 7.64683C0 7.9717 0.46502 8.23506 1.03865 8.23506H3.52559C3.52528 8.22914 3.52512 8.2232 3.52512 8.21724C3.52512 7.89236 3.99014 7.629 4.56377 7.629H18.3805C18.3639 7.31238 17.9054 7.05859 17.3423 7.05859H1.03865Z" fill="#2098F3"/>
<path d="M2.45068 8.23438H17.1551V18.0995C17.1551 19.1486 16.2903 19.999 15.2236 19.999H4.38219C3.31545 19.999 2.45068 19.1486 2.45068 18.0995V8.23438Z" fill="#2098F3"/>
</svg>
