<svg xmlns="http://www.w3.org/2000/svg" width="23" height="24" viewBox="0 0 23 24" fill="none">
  <path fill-rule="evenodd" clip-rule="evenodd" d="M22.54 12.2615C22.54 11.446 22.4668 10.6619 22.3309 9.90918H11.5V14.3576H17.6891C17.4225 15.7951 16.6123 17.013 15.3943 17.8285V20.714H19.1109C21.2855 18.7119 22.54 15.7637 22.54 12.2615Z" fill="#2098F3"/>
  <path fill-rule="evenodd" clip-rule="evenodd" d="M11.4995 23.5005C14.6045 23.5005 17.2077 22.4708 19.1104 20.7144L15.3938 17.829C14.364 18.519 13.0467 18.9267 11.4995 18.9267C8.50425 18.9267 5.96902 16.9037 5.0647 14.1855H1.22266V17.1651C3.11493 20.9235 7.00402 23.5005 11.4995 23.5005Z" fill="#3FA654"/>
  <path fill-rule="evenodd" clip-rule="evenodd" d="M5.06523 14.1845C4.83523 13.4945 4.70455 12.7575 4.70455 11.9995C4.70455 11.2416 4.83523 10.5045 5.06523 9.81451V6.83496H1.22318C0.444318 8.38746 0 10.1438 0 11.9995C0 13.8552 0.444318 15.6116 1.22318 17.1641L5.06523 14.1845Z" fill="#FFB114"/>
  <path fill-rule="evenodd" clip-rule="evenodd" d="M11.4995 5.07386C13.1879 5.07386 14.7038 5.65409 15.8956 6.79364L19.194 3.49523C17.2024 1.63955 14.5992 0.5 11.4995 0.5C7.00402 0.5 3.11493 3.07705 1.22266 6.83545L5.0647 9.815C5.96902 7.09682 8.50425 5.07386 11.4995 5.07386Z" fill="#DE3412"/>
</svg>